<?xml version="1.0" standalone="no"?>
<!DOCTYPE svg PUBLIC "-//W3C//DTD SVG 20010904//EN"
 "http://www.w3.org/TR/2001/REC-SVG-20010904/DTD/svg10.dtd">
<svg version="1.0" xmlns="http://www.w3.org/2000/svg"
 width="675.000000pt" height="427.000000pt" viewBox="0 0 675.000000 427.000000"
 preserveAspectRatio="xMidYMid meet">

<g transform="translate(0.000000,427.000000) scale(0.100000,-0.100000)"
fill="#000000" stroke="none">
<path d="M0 3448 c0 -584 3 -809 11 -798 9 12 9 11 2 -5 -4 -11 -9 -611 -11
-1332 l-2 -1313 3375 0 3375 0 0 2130 0 2130 -3375 0 -3375 0 0 -812z m2201
-202 c-6 -25 -11 -47 -11 -50 0 -13 71 -33 140 -40 78 -7 133 -22 238 -63 35
-13 103 -33 152 -43 153 -34 310 -98 310 -127 0 -10 37 -33 53 -33 1 0 1 26
-1 57 -4 65 9 110 35 120 9 4 66 1 127 -5 61 -7 152 -15 201 -18 50 -3 106
-10 125 -15 19 -5 58 -9 87 -9 28 0 63 -4 77 -10 25 -9 26 -14 26 -79 0 -57
-3 -72 -18 -80 -19 -10 -165 -1 -413 24 -142 15 -247 19 -221 8 20 -8 14 -31
-18 -61 l-30 -29 39 -11 c21 -7 47 -12 57 -12 44 0 82 -56 67 -97 -7 -18 -23
-16 -23 2 0 18 -4 18 -46 3 -29 -10 -32 -15 -27 -42 6 -42 -12 -88 -35 -84 -9
2 -25 19 -34 38 -10 19 -21 35 -25 35 -13 0 -25 -61 -27 -143 -3 -90 -15 -117
-42 -90 -12 11 -18 48 -25 133 -5 65 -11 120 -14 123 -9 9 -27 -15 -31 -40 -2
-13 -7 -53 -12 -90 -5 -38 -16 -75 -25 -86 -12 -13 -14 -21 -6 -29 6 -6 9 -26
7 -44 -3 -34 -3 -34 -71 -43 -86 -12 -113 -1 -123 50 -6 33 -4 40 22 61 24 19
29 31 29 65 0 35 4 44 30 58 27 16 32 16 47 2 23 -19 30 -1 20 48 -8 33 -10
35 -47 34 -22 -1 -61 -5 -86 -8 -35 -5 -49 -3 -59 8 -7 9 -18 16 -24 16 -7 0
-22 9 -34 20 -16 15 -20 27 -15 53 7 43 -20 97 -47 97 -30 0 -53 -44 -47 -89
6 -49 -7 -71 -43 -71 -41 0 -40 1 -76 -171 -5 -23 -2 -27 26 -33 l32 -6 -7
-57 c-8 -69 -13 -75 -57 -76 -113 -3 -176 4 -182 19 -8 20 13 91 31 105 17 15
17 43 -1 58 -25 21 -25 58 0 82 33 31 30 57 -12 128 -29 49 -34 63 -25 80 8
14 17 18 29 14 15 -6 15 -5 3 10 -11 14 -11 20 -1 32 12 15 10 46 -8 120 -32
125 -38 164 -26 154 8 -7 14 -6 19 2 4 6 1 16 -6 21 -10 6 -6 7 11 2 20 -6 23
-4 13 7 -12 15 -7 66 8 75 5 3 9 24 9 47 0 30 3 38 11 30 9 -9 9 -23 0 -57z
m-46 24 c3 -5 1 -10 -4 -10 -6 0 -11 5 -11 10 0 6 2 10 4 10 3 0 8 -4 11 -10z
m-1748 -152 c27 -12 76 -56 80 -74 1 -5 9 -28 18 -52 8 -24 13 -48 10 -53 -4
-5 -1 -9 4 -9 21 0 11 -28 -11 -34 -53 -15 -142 -18 -203 -6 -55 10 -70 18
-90 45 -31 40 -44 117 -24 141 42 51 148 71 216 42z m-287 -55 c0 -4 -9 -42
-21 -85 -22 -79 -39 -104 -32 -45 11 86 25 137 39 137 8 0 14 -3 14 -7z m977
-190 c-3 -10 -5 -2 -5 17 0 19 2 27 5 18 2 -10 2 -26 0 -35z m2761 -251 c10
-287 9 -359 -4 -372 -12 -12 -192 13 -227 32 -27 14 -17 19 64 29 40 5 76 15
81 21 4 7 8 41 8 76 0 34 5 71 12 81 9 14 8 23 -4 40 -10 14 -18 18 -23 12 -3
-6 -10 -11 -15 -11 -12 0 -50 74 -50 96 0 22 28 54 48 54 9 0 13 7 9 20 -4 14
5 32 29 57 19 20 34 44 34 54 0 9 3 25 6 34 16 41 26 -26 32 -223z m-2667 -60
c10 -75 29 -112 56 -112 7 0 13 -7 13 -15 0 -22 -38 -95 -50 -95 -5 0 -1 15
10 33 26 42 25 54 -6 80 -20 17 -27 37 -35 92 -5 39 -25 117 -44 175 -46 139
-44 150 6 22 21 -57 44 -138 50 -180z m2354 188 c7 -22 20 -26 30 -10 3 6 17
10 30 10 30 0 41 -31 23 -62 -12 -22 -14 -28 -17 -55 0 -6 -10 -14 -20 -18
-11 -3 -22 -19 -26 -36 -8 -35 -30 -47 -55 -31 -15 9 -19 3 -34 -49 -9 -32
-16 -65 -16 -73 0 -25 -21 -29 -36 -7 -16 22 -54 29 -54 10 0 -6 4 -18 10 -28
6 -13 4 -24 -7 -40 -16 -24 -27 -20 -47 20 -16 32 -34 34 -46 5 -5 -14 -14
-26 -20 -26 -17 0 -11 26 13 51 12 13 28 37 35 53 11 24 10 31 -3 46 -8 9 -15
29 -15 44 0 35 -17 66 -35 66 -21 0 -26 14 -16 46 5 16 12 41 15 57 11 50 66
26 81 -35 8 -32 9 -32 34 -16 25 15 49 -3 53 -40 2 -16 10 -28 21 -30 22 -4
23 25 1 57 -17 24 -11 37 21 43 13 2 19 10 17 22 -5 30 6 46 32 46 16 0 27 -7
31 -20z m-1001 -112 c56 -52 34 -108 -44 -112 -80 -4 -121 34 -99 90 17 47
101 59 143 22z m-2002 -99 c69 -14 89 -32 64 -57 -37 -37 -443 -25 -505 15
-60 38 53 64 254 58 72 -2 156 -10 187 -16z m2713 -30 c10 -29 -7 -44 -34 -30
-33 18 -26 51 10 51 10 0 21 -9 24 -21z m-72 -76 c28 -73 24 -93 -18 -93 -28
0 -31 8 -40 93 -7 62 -6 67 12 67 14 0 26 -17 46 -67z m3084 -110 c0 -21 -2
-29 -4 -18 -3 11 -9 24 -14 30 -13 13 -11 25 4 25 9 0 14 -13 14 -37z m-5157
24 c0 -2 -12 -14 -27 -28 l-28 -24 24 28 c23 25 31 32 31 24z m-100 -41 c0 -3
-4 -8 -10 -11 -5 -3 -10 -1 -10 4 0 6 5 11 10 11 6 0 10 -2 10 -4z m-40 -10
c0 -2 -29 -17 -63 -34 -116 -57 -204 -153 -248 -271 -5 -13 -12 -21 -15 -18
-9 8 40 110 72 152 34 45 134 121 199 151 53 25 55 26 55 20z m70 -21 c-7 -8
-18 -15 -26 -15 -7 0 -18 -8 -23 -17 -10 -17 -10 -17 -11 0 0 10 8 20 18 23 9
3 24 9 32 14 22 13 24 12 10 -5z m5027 -20 c-21 -15 -22 -25 -2 -25 8 0 15 -6
15 -14 0 -22 -54 -15 -58 7 -4 21 36 60 51 50 6 -4 4 -11 -6 -18z m-942 -282
c-11 -7 -22 -13 -27 -13 -14 0 -8 19 9 29 25 13 40 1 18 -16z m185 7 c0 -11
-6 -20 -13 -20 -19 0 -27 10 -20 26 8 21 33 17 33 -6z m-520 -57 l13 -48 10
48 c8 41 12 47 34 47 20 0 24 -4 18 -17 -3 -10 -11 -39 -17 -65 -11 -45 -13
-48 -45 -48 -32 0 -33 2 -50 61 -9 34 -19 57 -21 50 -2 -6 -12 -11 -23 -11
-16 0 -19 -7 -19 -50 0 -43 -3 -50 -20 -50 -17 0 -20 7 -20 50 0 43 -3 50 -20
50 -11 0 -20 7 -20 15 0 12 16 15 84 15 l84 0 12 -47z m235 12 c0 -16 4 -36 8
-43 5 -7 5 -21 2 -32 -5 -17 -15 -20 -61 -20 l-54 0 0 66 0 65 53 -3 c50 -3
52 -4 52 -33z m109 9 c12 -4 16 -20 16 -54 0 -47 -1 -47 -36 -53 -49 -8 -66 0
-62 32 2 20 9 27 31 29 15 2 27 8 27 14 0 6 -11 8 -25 6 -19 -4 -25 -1 -25 13
0 14 7 19 29 19 16 0 36 -3 45 -6z m116 -9 c0 -9 -9 -15 -22 -15 -22 -1 -21
-2 5 -16 15 -8 27 -23 27 -34 0 -39 -81 -54 -88 -17 -3 15 0 18 17 12 12 -3
21 -2 21 3 0 5 -9 12 -20 15 -13 3 -20 14 -20 29 0 32 7 38 47 38 23 0 33 -5
33 -15z m68 -43 c3 -50 2 -52 -22 -52 -24 0 -26 3 -26 48 0 53 6 64 30 60 11
-2 16 -18 18 -56z m112 43 c0 -9 -9 -15 -24 -15 -41 0 -42 -44 -2 -51 30 -6
31 -27 2 -35 -58 -14 -102 59 -60 100 20 21 84 22 84 1z m108 -47 l3 -56 -43
3 c-24 1 -47 3 -51 4 -5 0 -7 13 -5 29 2 21 9 28 31 30 15 2 27 8 27 14 0 6
-11 8 -25 6 -20 -4 -25 -1 -25 14 0 16 6 19 43 16 l42 -3 3 -57z m924 -30 c-7
-7 -12 -8 -12 -2 0 14 12 26 19 19 2 -3 -1 -11 -7 -17z m-1418 -140 l16 -22
16 22 c23 33 48 29 38 -5 -9 -33 -8 -57 2 -96 6 -25 4 -28 -12 -25 -11 2 -23
13 -29 26 -11 25 -25 29 -25 8 0 -20 -27 -39 -45 -32 -13 5 -13 10 2 40 13 29
14 40 5 61 -7 14 -12 30 -12 35 0 18 29 10 44 -12z m-4857 -59 c-18 -10 -67
-2 -67 11 0 13 43 17 64 7 17 -8 18 -10 3 -18z m4681 -237 c35 -45 -3 -126
-55 -120 -31 4 -44 28 -15 28 11 0 26 8 33 17 11 13 11 15 1 9 -7 -4 -24 -5
-38 -2 -20 5 -24 13 -24 42 0 27 5 37 23 44 27 11 58 3 75 -18z m182 8 c44
-44 11 -135 -47 -128 -27 3 -45 28 -21 28 8 0 23 6 33 14 18 13 18 14 -6 9
-20 -4 -31 1 -42 17 -38 54 36 107 83 60z m130 -6 c7 -8 14 -30 14 -50 0 -41
-33 -77 -67 -72 -29 4 -33 26 -6 30 33 4 34 24 2 23 -21 0 -30 6 -37 29 -9 24
-7 31 13 47 25 21 54 18 81 -7z m-440 -49 c0 -58 -2 -65 -20 -65 -17 0 -20 7
-20 50 0 40 -3 48 -15 44 -9 -4 -15 0 -15 8 0 21 10 28 42 28 28 0 28 0 28
-65z m615 30 c0 -16 4 -36 8 -43 16 -24 -2 -49 -41 -56 -74 -12 -72 -13 -72
65 l0 70 53 -3 c50 -3 52 -4 52 -33z m-1392 -28 c-3 -5 -12 -2 -20 6 -9 8 -12
20 -8 27 5 8 11 6 20 -7 7 -10 11 -22 8 -26z m1507 28 c0 -10 -10 -15 -27 -15
l-28 -1 28 -15 c48 -26 22 -80 -36 -72 -27 4 -37 38 -11 38 17 0 17 1 -1 13
-13 10 -16 21 -11 40 6 24 11 27 46 27 29 0 40 -4 40 -15z m-532 -76 c4 -19
-19 -31 -38 -19 -18 11 -4 42 17 38 10 -2 19 -10 21 -19z m-1108 -24 c0 -2
-20 -18 -45 -35 -25 -17 -45 -29 -45 -26 0 4 80 64 88 66 1 0 2 -2 2 -5z
m-118 -87 c-17 -19 -97 -72 -82 -55 8 9 95 76 99 76 3 1 -5 -9 -17 -21z
m-2272 -13 c0 -8 -6 -15 -14 -15 -17 0 -28 14 -19 24 12 12 33 6 33 -9z m-460
-95 c0 -64 -3 -80 -15 -80 -12 0 -15 13 -15 61 0 53 12 99 25 99 3 0 5 -36 5
-80z m175 35 c19 -18 25 -35 25 -68 l0 -43 -64 -2 c-47 -1 -69 2 -80 14 -35
34 -4 64 66 64 45 0 49 2 37 16 -10 12 -25 15 -56 11 -49 -5 -63 19 -15 26 55
8 63 7 87 -18z m194 16 c19 -12 5 -30 -19 -24 -52 14 -93 -26 -65 -63 9 -13
21 -16 53 -12 45 6 69 -15 29 -26 -97 -26 -171 58 -101 113 27 22 78 27 103
12z m91 -61 c0 -56 -3 -70 -15 -70 -12 0 -15 14 -15 70 0 56 3 70 15 70 12 0
15 -14 15 -70z m189 44 c12 -15 21 -35 21 -44 0 -57 -92 -90 -142 -50 -58 45
-19 120 63 120 29 0 42 -6 58 -26z m193 9 c24 -21 26 -113 3 -113 -11 0 -15
11 -15 38 0 56 -23 77 -67 61 -20 -7 -23 -16 -23 -59 0 -38 -4 -50 -15 -50
-12 0 -15 14 -15 69 l0 68 57 2 c40 1 62 -4 75 -16z m-922 -88 c0 -32 -2 -34
-29 -32 l-29 2 27 32 c14 17 27 32 29 32 1 1 2 -15 2 -34z m145 -155 c3 -6 -1
-13 -10 -16 -19 -8 -30 0 -20 15 8 14 22 14 30 1z m95 -21 c0 -12 8 -23 20
-26 11 -3 20 -9 20 -14 0 -5 -9 -9 -20 -9 -18 0 -20 -7 -20 -55 0 -42 -3 -55
-15 -55 -12 0 -15 13 -15 55 0 42 -3 55 -15 55 -8 0 -15 5 -15 10 0 6 7 10 15
10 9 0 15 9 15 25 0 16 6 25 15 25 9 0 15 -9 15 -21z m-384 -29 c8 0 14 -4 14
-10 0 -5 -7 -10 -15 -10 -12 0 -15 -13 -15 -55 0 -42 -3 -55 -15 -55 -12 0
-15 13 -15 55 0 46 -3 55 -17 55 -17 1 -17 1 0 14 9 7 17 18 17 24 0 19 25 19
28 0 2 -10 10 -18 18 -18z m584 -10 c15 -15 20 -33 20 -69 l0 -48 -66 1 c-55
1 -69 4 -80 22 -23 34 2 56 64 56 45 0 51 2 40 15 -9 11 -25 14 -55 10 -31 -3
-43 -1 -43 9 0 27 93 31 120 4z m-498 -36 c3 -53 21 -70 61 -60 25 6 27 11 27
56 0 38 4 50 15 50 12 0 15 -14 15 -64 l0 -63 -59 -2 c-51 -1 -62 2 -75 21
-21 29 -22 108 -2 108 11 0 16 -14 18 -46z m198 -19 c0 -51 -3 -65 -15 -65
-12 0 -15 14 -15 65 0 51 3 65 15 65 12 0 15 -14 15 -65z m-400 -34 c0 -26 -3
-30 -29 -29 l-30 1 27 29 c15 15 28 28 29 28 2 0 3 -13 3 -29z m4121 -49 c68
-35 109 -92 116 -158 l5 -49 -113 112 c-84 82 -122 113 -144 116 -17 2 -6 5
26 6 45 1 68 -5 110 -27z m-20 -119 c13 -16 12 -17 -3 -4 -10 7 -18 15 -18 17
0 8 8 3 21 -13z m617 -40 c3 -49 5 -53 28 -53 15 0 24 -6 24 -15 0 -11 -12
-15 -50 -15 l-50 0 0 71 c0 67 1 70 23 67 19 -3 22 -10 25 -55z m112 2 l0 -55
33 0 c30 0 33 3 47 53 14 47 18 52 47 55 30 3 32 1 47 -52 9 -30 19 -62 22
-71 5 -11 0 -15 -19 -15 -14 0 -27 7 -31 15 -3 8 -12 15 -20 15 -7 0 -16 -7
-20 -15 -4 -11 -23 -15 -81 -15 l-75 0 0 70 c0 68 1 70 25 70 24 0 25 -3 25
-55z m291 25 l6 -25 8 28 c6 22 13 27 40 27 37 0 45 -15 45 -92 0 -45 -2 -48
-25 -48 -22 0 -25 4 -26 38 -1 38 -3 37 -13 -10 -5 -21 -12 -28 -30 -28 -19 0
-24 7 -33 48 l-10 47 -2 -47 c-1 -41 -4 -48 -21 -48 -18 0 -20 7 -20 71 l0 70
37 -3 c30 -2 38 -8 44 -28z m223 -25 c9 -30 19 -61 22 -70 5 -11 -1 -15 -20
-15 -16 0 -26 6 -26 15 0 8 -9 15 -19 15 -10 0 -21 -7 -25 -15 -6 -15 -46 -21
-46 -7 0 4 9 36 21 70 19 57 23 62 49 62 26 0 30 -5 44 -55z m101 18 l25 -38
0 38 c0 30 4 37 20 37 18 0 20 -7 20 -70 0 -66 -1 -70 -22 -70 -15 0 -30 11
-43 33 l-19 32 -4 -32 c-2 -25 -8 -33 -23 -33 -17 0 -19 7 -19 70 0 63 2 70
20 70 11 0 30 -16 45 -37z m203 21 c16 -11 22 -25 22 -52 0 -43 -6 -55 -38
-71 -28 -15 -87 1 -96 25 -30 79 45 145 112 98z m135 10 c13 -13 -6 -34 -32
-35 -25 -1 -25 -1 7 -15 29 -13 33 -19 30 -46 -3 -34 -30 -48 -75 -40 -35 7
-28 30 10 34 l32 3 -30 15 c-33 17 -44 52 -25 76 12 14 71 20 83 8z m-180
-211 c-167 -2 -439 -2 -605 0 -167 1 -31 2 302 2 333 0 469 -1 303 -2z m-4179
-54 c20 -24 26 -41 26 -81 0 -41 -5 -54 -29 -79 -94 -94 -216 68 -125 166 35
38 94 35 128 -6z"/>
<path d="M2787 2486 c-4 -10 -5 -21 -2 -24 9 -9 17 6 13 25 -3 17 -4 17 -11
-1z"/>
<path d="M3355 2590 c-4 -6 -3 -16 3 -22 6 -6 12 -6 17 2 4 6 3 16 -3 22 -6 6
-12 6 -17 -2z"/>
<path d="M4960 1936 c0 -9 7 -16 16 -16 17 0 14 22 -4 28 -7 2 -12 -3 -12 -12z"/>
<path d="M4960 1881 c0 -12 6 -21 16 -21 9 0 14 7 12 17 -5 25 -28 28 -28 4z"/>
<path d="M5090 1870 c0 -5 5 -10 10 -10 6 0 10 5 10 10 0 6 -4 10 -10 10 -5 0
-10 -4 -10 -10z"/>
<path d="M5480 1870 c0 -5 5 -10 10 -10 6 0 10 5 10 10 0 6 -4 10 -10 10 -5 0
-10 -4 -10 -10z"/>
<path d="M4810 1395 c0 -9 5 -15 11 -13 6 2 11 8 11 13 0 5 -5 11 -11 13 -6 2
-11 -4 -11 -13z"/>
<path d="M5000 1395 c0 -9 5 -15 11 -13 6 2 11 8 11 13 0 5 -5 11 -11 13 -6 2
-11 -4 -11 -13z"/>
<path d="M5122 1398 c6 -18 28 -21 28 -4 0 9 -7 16 -16 16 -9 0 -14 -5 -12
-12z"/>
<path d="M5290 1406 c0 -9 7 -16 16 -16 17 0 14 22 -4 28 -7 2 -12 -3 -12 -12z"/>
<path d="M5296 1363 c-12 -12 -6 -33 9 -33 8 0 15 6 15 14 0 17 -14 28 -24 19z"/>
<path d="M1065 1080 c-4 -7 -2 -17 3 -22 13 -13 72 1 75 17 3 14 -70 18 -78 5z"/>
<path d="M1521 1121 c-15 -27 -4 -50 27 -58 34 -8 57 8 57 43 0 26 -4 29 -37
32 -28 2 -39 -1 -47 -17z"/>
<path d="M1240 776 c0 -20 25 -27 60 -15 39 14 29 29 -21 29 -27 0 -39 -4 -39
-14z"/>
<path d="M5590 545 c0 -8 4 -15 10 -15 5 0 7 7 4 15 -4 8 -8 15 -10 15 -2 0
-4 -7 -4 -15z"/>
<path d="M5930 546 c0 -9 5 -16 10 -16 6 0 10 4 10 9 0 6 -4 13 -10 16 -5 3
-10 -1 -10 -9z"/>
<path d="M6227 574 c-4 -4 -7 -22 -7 -41 0 -27 4 -33 21 -33 17 0 20 5 17 37
-3 35 -17 51 -31 37z"/>
</g>
</svg>
